<?xml version="1.0" encoding="UTF-8"?><svg id="OBJECTS" xmlns="http://www.w3.org/2000/svg" xmlns:xlink="http://www.w3.org/1999/xlink" viewBox="0 0 240 80"><defs><style>.cls-1{fill:url(#_未命名漸層_2);}.cls-1,.cls-2,.cls-3{stroke-width:0px;}.cls-2{fill:url(#_未命名漸層_175);}.cls-3{fill:#fff;}</style><linearGradient id="_未命名漸層_175" x1="15.06" y1="29.78" x2="80.11" y2="29.78" gradientUnits="userSpaceOnUse"><stop offset=".08" stop-color="#c3f507"/><stop offset="1" stop-color="#00ace7"/></linearGradient><linearGradient id="_未命名漸層_2" x1="5.89" y1="59.58" x2="89.38" y2="59.58" gradientUnits="userSpaceOnUse"><stop offset="0" stop-color="#00c0b1"/><stop offset="1" stop-color="#0d77b7"/></linearGradient></defs><path class="cls-3" d="m112.64,14.77h10.77v51.84h-10.77V14.77Z"/><path class="cls-3" d="m158.92,24.78c-2.5-1.25-6.18-2.22-9.45-2.22-4.8,0-6.74,1.95-6.74,4.17,0,2.85,2.57,4.86,7.71,9.31,8.48,7.3,11.4,11.74,11.4,17.09,0,8.96-7.92,14.31-18.14,14.31-3.96,0-9.45-.9-12.3-2.08l.14-9.59c3.06,1.53,7.85,2.85,12.23,2.85s7.16-2.5,7.16-5.21c0-2.92-2.5-5.49-8.13-10.15-8.27-7.02-11.33-10.49-11.33-16.47,0-6.74,5.42-13.06,17.44-13.06,3.27,0,7.16.49,10.15,1.6l-.14,9.45Z"/><path class="cls-3" d="m179.98,14.77v42.11h17.93v9.73h-28.77V14.77h10.84Z"/><path class="cls-3" d="m204.58,14.77h28.98v9.52h-18.14v11.26h16.4v8.76h-16.4v12.79h18.69v9.52h-29.53V14.77Z"/><path class="cls-2" d="m30.59,40.41l9.91-14.86c1.12-1.68,3.58-1.68,4.7,0l11.66,17.48c1.11,1.67,3.55,1.68,4.68.02l.03-.05c1.13-1.65,3.57-1.64,4.68.02l7.23,10.84c.25.38.66.38.91,0l4.29-6.44,1.35-2.02c.12-.18.12-.41,0-.59l-13.76-20.64c-1.12-1.68-3.58-1.68-4.7,0h0c-1.12,1.68-3.58,1.68-4.7,0l-11.67-17.51c-1.12-1.68-3.58-1.68-4.7,0L15.06,44.83c4.52-2.65,9.7-4.14,15.1-4.2.17,0,.33-.09.43-.23Z"/><path class="cls-1" d="m30.48,44.57c8.88,0,17.12,4.41,22.05,11.79,2.73,4.1,7.23,6.68,12.15,6.68h.31c5.01,0,9.68-2.5,12.46-6.67l4.5-6.75c.28-.43.91-.43,1.2,0l6.11,9.05c.16.24.16.56,0,.8l-2.61,3.91c-4.66,7-12.51,11.2-20.92,11.2h-1.65c-8.6,0-16.37-4.6-21.12-11.77-2.96-4.46-7.82-6.93-13.22-6.69-4.85.22-9.24,2.94-11.93,6.97l-2.19,3.29c-.22.33-.67.42-1,.2l-8.41-5.6c-.33-.22-.42-.67-.2-1l2.41-3.61c4.92-7.38,13.2-11.81,22.06-11.81h0,0,0"/></svg>